<?xml version="1.0" encoding="UTF-8" standalone="no"?>
<svg width="142px" height="33px" viewBox="0 0 142 33" version="1.1" xmlns="http://www.w3.org/2000/svg" xmlns:xlink="http://www.w3.org/1999/xlink" xmlns:sketch="http://www.bohemiancoding.com/sketch/ns">
    <!-- Generator: Sketch 3.5.2 (25235) - http://www.bohemiancoding.com/sketch -->
    <title>Page 1</title>
    <desc>Created with Sketch.</desc>
    <defs>
        <path id="path-1" d="M0,0.818 L141.89,0.818 L141.89,33 L0,33"></path>
        <path id="path-3" d="M0,0.818 L141.89,0.818 L141.89,33 L0,33"></path>
    </defs>
    <g id="Page-1" stroke="none" stroke-width="1" fill="none" fill-rule="evenodd" sketch:type="MSPage">
        <g id="Knowit-reise" sketch:type="MSArtboardGroup" transform="translate(-175.000000, -4440.000000)">
            <g id="Page-1" sketch:type="MSLayerGroup" transform="translate(175.000000, 4440.000000)">
                <path d="M23.5572,9.0075 L20.1752,9.0075 C19.1162,9.0075 18.9872,9.1385 17.7602,10.3745 C17.1432,10.9935 6.9602,21.2495 6.9602,21.2495 L6.9602,4.1335 C6.9602,3.5585 6.6452,3.2425 6.0702,3.2425 L0.8922,3.2425 C0.3152,3.2425 0.0002,3.5585 0.0002,4.1335 L0.0002,6.4355 C0.0002,7.0165 0.3152,7.3315 0.8922,7.3315 L2.7862,7.3315 L2.7862,28.4405 L0.9022,28.4405 C0.3252,28.4405 0.0112,28.7545 0.0112,29.3295 L0.0112,31.6325 C0.0112,32.2085 0.3252,32.5335 0.9022,32.5335 L8.8212,32.5335 C9.3992,32.5335 9.7152,32.2195 9.7152,31.6425 L9.7152,29.3385 C9.7152,28.7575 9.3992,28.4405 8.8212,28.4405 L6.9602,28.4405 L6.9602,26.7335 L11.0162,22.6155 L18.1542,31.3415 C19.0942,32.5335 19.0942,32.5335 20.4682,32.5335 L23.5512,32.5335 C24.1232,32.5335 24.4392,32.2195 24.4392,31.6425 L24.4392,29.3385 C24.4392,28.7625 24.1232,28.4485 23.5512,28.4485 L21.0072,28.4485 L13.9052,19.6835 L20.3962,13.1035 L23.5572,13.1035 C24.1432,13.1035 24.4492,12.8145 24.4492,12.2465 L24.4492,9.9005 C24.4492,9.3255 24.1332,9.0075 23.5572,9.0075" id="Fill-1" fill="#000000" sketch:type="MSShapeGroup"></path>
                <path d="M51.4458,28.4487 L49.5708,28.4487 L49.5708,18.3797 C49.5708,12.3857 45.7948,8.5127 39.9568,8.5127 C37.2638,8.5127 35.0038,9.3427 33.2368,10.9787 L33.2368,9.9107 C33.2368,9.3347 32.9218,9.0177 32.3468,9.0177 L27.2388,9.0177 C26.6598,9.0177 26.3438,9.3247 26.3438,9.9047 L26.3438,12.2037 C26.3438,12.7807 26.6598,13.1017 27.2378,13.1017 L29.1108,13.1017 L29.1108,28.4487 L27.2378,28.4487 C26.6598,28.4487 26.3438,28.7627 26.3438,29.3387 L26.3438,31.6427 C26.3438,32.2167 26.6598,32.5337 27.2378,32.5337 L35.1138,32.5337 C35.6908,32.5337 36.0048,32.2167 36.0048,31.6427 L36.0048,29.3387 C36.0048,28.7627 35.6908,28.4487 35.1138,28.4487 L33.2368,28.4487 L33.2368,19.0977 C33.2368,15.2577 35.9368,12.4697 39.6548,12.4697 C43.2758,12.4697 45.4378,14.8187 45.4378,18.7617 L45.4378,28.4487 L43.5658,28.4487 C42.9868,28.4487 42.6698,28.7627 42.6698,29.3387 L42.6698,31.6427 C42.6698,32.2167 42.9868,32.5337 43.5658,32.5337 L51.4458,32.5337 C52.0218,32.5337 52.3378,32.2167 52.3378,31.6427 L52.3378,29.3387 C52.3378,28.7627 52.0218,28.4487 51.4458,28.4487" id="Fill-3" fill="#000000" sketch:type="MSShapeGroup"></path>
                <g id="Group-7">
                    <mask id="mask-2" sketch:name="Clip 6" fill="white">
                        <use xlink:href="#path-1"></use>
                    </mask>
                    <g id="Clip-6"></g>
                    <path d="M64.2416,28.9971 C59.9046,28.9971 56.5066,25.3571 56.5066,20.7111 C56.5066,16.0631 59.7986,12.5561 64.1596,12.5561 C68.5206,12.5561 71.9386,16.1941 71.9386,20.8371 C71.9386,25.4901 68.6306,28.9971 64.2416,28.9971 M64.2416,8.5481 C57.4946,8.5481 52.2106,13.9491 52.2106,20.8371 C52.2106,27.6561 57.4596,33.0001 64.1596,33.0001 C70.9346,33.0001 76.2396,27.6031 76.2396,20.7111 C76.2396,13.8901 70.9696,8.5481 64.2416,8.5481" id="Fill-5" fill="#000000" sketch:type="MSShapeGroup" mask="url(#mask-2)"></path>
                </g>
                <path d="M111.2347,9.0177 L103.1407,9.0177 C102.5647,9.0177 102.2477,9.3357 102.2477,9.9107 L102.2477,12.2117 C102.2477,12.7857 102.5647,13.1027 103.1407,13.1027 L104.9607,13.1027 L101.1047,25.5657 L95.6467,9.6867 C95.4977,9.2607 95.0987,8.9767 94.6557,8.9767 L93.0417,8.9767 C92.5937,8.9767 92.1947,9.2607 92.0477,9.6867 L86.6447,25.5587 L82.7857,13.1027 L84.6077,13.1027 C85.1837,13.1027 85.4977,12.7857 85.4977,12.2117 L85.4977,9.9107 C85.4977,9.3357 85.1837,9.0177 84.6077,9.0177 L76.4237,9.0177 C75.8457,9.0177 75.5297,9.3357 75.5297,9.9107 L75.5297,12.2117 C75.5297,12.7857 75.8457,13.1027 76.4237,13.1027 L78.3467,13.1027 L84.7617,31.9307 C84.9097,32.3417 85.3037,32.6227 85.7437,32.6227 L87.4867,32.6227 C87.9337,32.6227 88.3297,32.3367 88.4747,31.9127 L93.8417,16.4827 L99.1817,31.9127 C99.3247,32.3367 99.7227,32.6227 100.1737,32.6227 L101.9167,32.6227 C102.3567,32.6227 102.7507,32.3417 102.8977,31.9327 L109.3147,13.1027 L111.2347,13.1027 C111.8147,13.1027 112.1317,12.7857 112.1317,12.2117 L112.1317,9.9107 C112.1317,9.3357 111.8147,9.0177 111.2347,9.0177" id="Fill-8" fill="#000000" sketch:type="MSShapeGroup"></path>
                <g id="Group-12">
                    <mask id="mask-4" sketch:name="Clip 11" fill="white">
                        <use xlink:href="#path-3"></use>
                    </mask>
                    <g id="Clip-11"></g>
                    <path d="M140.9983,20.5753 L138.7303,20.5753 C138.1533,20.5753 137.8363,20.8893 137.8363,21.4653 L137.8363,25.8243 C137.8363,27.3223 136.7693,28.8753 134.9823,28.8753 C132.7393,28.8753 131.7823,27.9413 131.7823,25.7593 L131.7823,13.1023 L137.2573,13.1023 C137.8353,13.1023 138.1513,12.7863 138.1513,12.2123 L138.1513,9.9113 C138.1513,9.3343 137.8353,9.0173 137.2573,9.0173 L131.7823,9.0173 L131.7823,4.1273 C131.7823,3.5483 131.4673,3.2333 130.8903,3.2333 L128.5053,3.2333 C127.9283,3.2333 127.6103,3.5483 127.6103,4.1273 L127.6103,9.0173 L125.1173,9.0173 C124.5413,9.0173 124.2233,9.3343 124.2233,9.9113 L124.2233,12.2123 C124.2233,12.7863 124.5413,13.1023 125.1173,13.1023 L127.6103,13.1023 L127.6103,25.9683 C127.6103,30.1873 130.3693,32.9143 134.6373,32.9143 C139.0443,32.9143 141.8903,30.2763 141.8903,26.1923 L141.8903,21.4653 C141.8903,20.8893 141.5763,20.5753 140.9983,20.5753" id="Fill-10" fill="#000000" sketch:type="MSShapeGroup" mask="url(#mask-4)"></path>
                </g>
                <path d="M122.6873,28.4487 L120.8133,28.4487 L120.8133,9.9107 C120.8133,9.3347 120.4963,9.0177 119.9193,9.0177 L114.7643,9.0177 C114.1853,9.0177 113.8703,9.3347 113.8703,9.9107 L113.8703,12.2127 C113.8703,12.7867 114.1853,13.1017 114.7643,13.1017 L116.6403,13.1017 L116.6403,28.4487 L113.2343,28.4487 C112.6583,28.4487 112.3423,28.7627 112.3423,29.3387 L112.3423,31.6427 C112.3423,32.2167 112.6583,32.5337 113.2343,32.5337 L122.6873,32.5337 C123.2653,32.5337 123.5833,32.2167 123.5833,31.6427 L123.5833,29.3387 C123.5833,28.7627 123.2653,28.4487 122.6873,28.4487" id="Fill-13" fill="#000000" sketch:type="MSShapeGroup"></path>
                <path d="M118.6752,6.0471 C120.1192,6.0471 121.2892,4.8781 121.2892,3.4331 C121.2892,1.9911 120.1192,0.8181 118.6752,0.8181 C117.2332,0.8181 116.0612,1.9911 116.0612,3.4331 C116.0612,4.8781 117.2332,6.0471 118.6752,6.0471" id="Fill-15" fill="#000000" sketch:type="MSShapeGroup"></path>
            </g>
        </g>
    </g>
</svg>