<?xml version="1.0" encoding="UTF-8" standalone="no"?>
<svg width="189px" height="55px" viewBox="0 0 189 55" version="1.1" xmlns="http://www.w3.org/2000/svg" xmlns:xlink="http://www.w3.org/1999/xlink" xmlns:sketch="http://www.bohemiancoding.com/sketch/ns">
    <!-- Generator: Sketch 3.5.2 (25235) - http://www.bohemiancoding.com/sketch -->
    <title>Group 8</title>
    <desc>Created with Sketch.</desc>
    <defs></defs>
    <g id="Page-1" stroke="none" stroke-width="1" fill="none" fill-rule="evenodd" sketch:type="MSPage">
        <g id="Knowit-reise" sketch:type="MSArtboardGroup" transform="translate(-174.000000, -7.000000)" stroke="#000000" stroke-width="0.25" fill="#000000">
            <g id="Group-8" sketch:type="MSLayerGroup" transform="translate(175.000000, 8.000000)">
                <path d="M0,8.78820116 L0,38.0959686 L19.5964501,38.0959686 L19.5964501,37.2750849 L0.819878491,37.2750849 L0.819878491,23.236864 L18.3260077,23.236864 L18.3260077,22.4159802 L0.819878491,22.4159802 L0.819878491,9.60908488 L19.4321051,9.60908488 L19.4321051,8.78820116 L0,8.78820116 Z" id="Fill-1" sketch:type="MSShapeGroup"></path>
                <path d="M36.3207403,16.9976547 L37.3049638,16.9976547 L29.5973673,27.1773523 L38.0429775,38.0959686 L37.0181294,38.0959686 L29.0643232,27.7930151 L21.1517571,38.0959686 L20.126909,38.0959686 L28.5725192,27.1773523 L20.9061629,16.9976547 L21.9716356,16.9976547 L29.0643232,26.5616895 L36.3207403,16.9976547 Z" id="Fill-2" sketch:type="MSShapeGroup"></path>
                <path d="M56.9414229,27.5056442 C56.9414229,22.0873186 54.2355777,17.3259465 48.7826471,17.3259465 C43.3715722,17.3259465 40.2557877,22.0466442 40.2557877,27.5056442 C40.2557877,34.0320395 43.6584065,37.767307 48.7826471,37.767307 C54.5636522,37.767307 56.9414229,32.3902721 56.9414229,27.5056442 L56.9414229,27.5056442 Z M40.2557877,45.3610977 L39.4359092,45.3610977 L39.4359092,16.9974698 L40.2557877,16.9974698 L40.2557877,22.9088186 L40.3376524,22.9088186 C41.4037407,19.2142256 44.478285,16.5050628 48.7826471,16.5050628 C54.3586826,16.5050628 57.7613014,21.1431791 57.7613014,27.5056442 C57.7613014,33.4163767 54.6042768,38.5881907 48.7826471,38.5881907 C44.31394,38.5881907 41.3218759,36.0022837 40.3376524,32.1850512 L40.2557877,32.1850512 L40.2557877,45.3610977 Z" id="Fill-3" sketch:type="MSShapeGroup"></path>
                <path d="M77.3144186,26.8899814 C77.3556587,21.7181674 74.4448439,17.3259465 68.9919133,17.3259465 C64.441957,17.3259465 60.7931284,20.9792488 60.5056785,26.8899814 L77.3144186,26.8899814 Z M60.5056785,27.7108651 C60.5881588,33.375086 62.8428246,37.767307 68.8281838,37.767307 C73.173786,37.767307 76.3720508,35.3459465 77.0688244,30.7897953 L77.8887029,30.7897953 C77.3144186,35.6331326 73.7074457,38.5881907 68.9106641,38.5881907 C62.3916452,38.6707721 59.6858,33.8268186 59.6858,27.5469349 C59.6858,20.5275163 64.1545071,16.5050628 68.9106641,16.5050628 C75.469692,16.5050628 78.3805068,21.9233884 78.1342971,27.7108651 L60.5056785,27.7108651 Z" id="Fill-5" sketch:type="MSShapeGroup"></path>
                <path d="M81.6176727,38.0958453 L80.7977942,38.0958453 L80.7977942,16.9975314 L81.6176727,16.9975314 L81.6176727,22.210636 L81.700153,22.210636 C82.4787914,19.0910314 84.9390424,16.3411942 89.9814182,16.5051244 L89.9814182,17.3260081 C84.2004131,17.0388221 81.6176727,21.5536826 81.6176727,26.1511244 L81.6176727,38.0958453 Z" id="Fill-7" sketch:type="MSShapeGroup"></path>
                <path d="M92.1113788,38.095907 L91.2915003,38.095907 L91.2915003,16.997593 L92.1113788,16.997593 L92.1113788,38.095907 Z M92.1113788,12.9338488 L91.2915003,12.9338488 L91.2915003,8.78813953 L92.1113788,8.78813953 L92.1113788,12.9338488 Z" id="Fill-9" sketch:type="MSShapeGroup"></path>
                <path d="M112.485852,26.8899814 C112.527092,21.7181674 109.616277,17.3259465 104.163346,17.3259465 C99.6133901,17.3259465 95.9645615,20.9792488 95.6771116,26.8899814 L112.485852,26.8899814 Z M95.6771116,27.7108651 C95.7595919,33.375086 98.0142577,37.767307 103.999617,37.767307 C108.345219,37.767307 111.543484,35.3459465 112.240257,30.7897953 L113.060136,30.7897953 C112.485852,35.6331326 108.878879,38.5881907 104.082097,38.5881907 C97.5630783,38.6707721 94.8572331,33.8268186 94.8572331,27.5469349 C94.8572331,20.5275163 99.3259402,16.5050628 104.082097,16.5050628 C110.641125,16.5050628 113.55194,21.9233884 113.30573,27.7108651 L95.6771116,27.7108651 Z" id="Fill-11" sketch:type="MSShapeGroup"></path>
                <path d="M115.969843,16.9976547 L116.789721,16.9976547 L116.789721,22.2107593 L116.872202,22.2107593 C117.650224,18.9678988 120.316061,16.5052477 124.456078,16.5052477 C128.84292,16.5052477 131.958704,19.2144105 131.958704,24.0984221 L131.958704,38.0959686 L131.138826,38.0959686 L131.138826,24.2222942 C131.138826,19.33705 128.023042,17.3261314 124.456078,17.3261314 C119.413702,17.3261314 116.789721,21.4718407 116.789721,26.1512477 L116.789721,38.0959686 L115.969843,38.0959686 L115.969843,16.9976547 Z" id="Fill-12" sketch:type="MSShapeGroup"></path>
                <path d="M152.619396,30.9126814 C152.168832,35.6333791 148.765598,38.5884372 144.010672,38.5884372 C138.024697,38.5884372 134.662703,33.7451 134.662703,27.9982977 C134.662703,21.8823442 137.737863,16.5053093 144.501861,16.5053093 C148.438139,16.5053093 151.922623,18.9266698 152.455051,23.4014721 L151.635173,23.4014721 C150.979639,19.2964372 147.98696,17.326193 144.501861,17.326193 C137.779103,17.326193 135.482582,23.0317047 135.482582,27.9982977 C135.482582,33.1701116 138.434637,37.7675535 144.010672,37.7675535 C148.150689,37.7675535 151.472059,35.1403558 151.799518,30.9126814 L152.619396,30.9126814 Z" id="Fill-13" sketch:type="MSShapeGroup"></path>
                <path d="M171.886418,26.8899814 C171.927658,21.7181674 169.016843,17.3259465 163.563912,17.3259465 C159.013956,17.3259465 155.365127,20.9792488 155.077678,26.8899814 L171.886418,26.8899814 Z M155.077678,27.7108651 C155.160158,33.375086 157.414824,37.767307 163.400183,37.767307 C167.745785,37.767307 170.94405,35.3459465 171.640823,30.7897953 L172.460702,30.7897953 C171.886418,35.6331326 168.279445,38.5881907 163.482663,38.5881907 C156.963644,38.6707721 154.257799,33.8268186 154.257799,27.5469349 C154.257799,20.5275163 158.726506,16.5050628 163.482663,16.5050628 C170.041691,16.5050628 172.952506,21.9233884 172.706296,27.7108651 L155.077678,27.7108651 Z" id="Fill-14" sketch:type="MSShapeGroup"></path>
                <path d="M176.230789,38.095907 L175.41091,38.095907 L175.41091,16.997593 L176.230789,16.997593 L176.230789,38.095907 Z M176.230789,12.9338488 L175.41091,12.9338488 L175.41091,8.78813953 L176.230789,8.78813953 L176.230789,12.9338488 Z" id="Fill-15" sketch:type="MSShapeGroup"></path>
                <path d="M182.543238,17.8185384 L182.543238,33.9909337 C182.543238,37.1518291 184.10113,37.2750849 185.372188,37.2750849 C186.192066,37.2750849 186.93008,37.2337942 187.175674,37.1518291 L187.175674,37.9727128 C186.684486,38.0140035 186.438276,38.0959686 185.167218,38.0959686 C183.240627,38.0959686 181.723359,37.1518291 181.723359,34.1554802 L181.723359,17.8185384 L177.828936,17.8185384 L177.828936,16.9976547 L181.723359,16.9976547 L181.723359,10.3480035 L182.543238,10.3480035 L182.543238,16.9976547 L187.299395,16.9976547 L187.299395,17.8185384 L182.543238,17.8185384 Z" id="Fill-16" sketch:type="MSShapeGroup"></path>
                <path d="M187.558284,0.591627907 L0.167422635,0.591627907 L0.167422635,0.0308139535 L187.558284,0.0308139535 L187.558284,0.591627907 Z" id="Fill-17" sketch:type="MSShapeGroup"></path>
                <path d="M187.558284,53 L0.167422635,53 L0.167422635,52.439186 L187.558284,52.439186 L187.558284,53 Z" id="Fill-18" sketch:type="MSShapeGroup"></path>
            </g>
        </g>
    </g>
</svg>